<svg width="30" height="31" viewBox="0 0 30 31" fill="none" xmlns="http://www.w3.org/2000/svg">
<path d="M19.8 15.5C19.8 16.4494 19.5185 17.3774 18.9911 18.1667C18.4636 18.9561 17.714 19.5713 16.8369 19.9346C15.9598 20.2979 14.9947 20.393 14.0636 20.2078C13.1325 20.0226 12.2772 19.5654 11.6059 18.8941C10.9346 18.2228 10.4774 17.3675 10.2922 16.4364C10.107 15.5053 10.2021 14.5402 10.5654 13.6631C10.9287 12.786 11.5439 12.0364 12.3333 11.5089C13.1226 10.9815 14.0507 10.7 15 10.7C16.2718 10.704 17.4904 11.2109 18.3897 12.1103C19.2891 13.0096 19.796 14.2282 19.8 15.5ZM30 8.9V22.1C30 24.3278 29.115 26.4644 27.5397 28.0397C25.9644 29.615 23.8278 30.5 21.6 30.5H8.4C6.17218 30.5 4.03561 29.615 2.4603 28.0397C0.884997 26.4644 0 24.3278 0 22.1V8.9C0 6.67218 0.884997 4.53561 2.4603 2.9603C4.03561 1.385 6.17218 0.5 8.4 0.5H21.6C23.8278 0.5 25.9644 1.385 27.5397 2.9603C29.115 4.53561 30 6.67218 30 8.9ZM22.2 15.5C22.2 14.076 21.7777 12.6839 20.9866 11.4999C20.1954 10.3159 19.0709 9.39302 17.7553 8.84807C16.4397 8.30312 14.992 8.16053 13.5954 8.43835C12.1987 8.71616 10.9158 9.40189 9.90883 10.4088C8.90189 11.4158 8.21616 12.6987 7.93835 14.0954C7.66053 15.492 7.80312 16.9397 8.34807 18.2553C8.89302 19.5709 9.81586 20.6954 10.9999 21.4866C12.1839 22.2777 13.576 22.7 15 22.7C16.9096 22.7 18.7409 21.9414 20.0912 20.5912C21.4414 19.2409 22.2 17.4096 22.2 15.5ZM24.6 7.7C24.6 7.34399 24.4944 6.99598 24.2966 6.69997C24.0989 6.40397 23.8177 6.17325 23.4888 6.03702C23.1599 5.90078 22.798 5.86513 22.4488 5.93459C22.0997 6.00404 21.7789 6.17547 21.5272 6.42721C21.2755 6.67894 21.104 6.99967 21.0346 7.34884C20.9651 7.698 21.0008 8.05992 21.137 8.38883C21.2733 8.71774 21.504 8.99886 21.8 9.19665C22.096 9.39443 22.444 9.5 22.8 9.5C23.2774 9.5 23.7352 9.31036 24.0728 8.97279C24.4104 8.63523 24.6 8.17739 24.6 7.7Z" fill="white"/>
</svg>
