<svg width="30" height="31" viewBox="0 0 30 31" fill="none" xmlns="http://www.w3.org/2000/svg">
<path d="M15 0.5C6.71652 0.5 0 7.21652 0 15.5C0 23.7835 6.71652 30.5 15 30.5C23.2835 30.5 30 23.7835 30 15.5C30 7.21652 23.2835 0.5 15 0.5ZM22.2087 11.8069C22.2187 11.9643 22.2187 12.1283 22.2187 12.2891C22.2187 17.2042 18.4754 22.8661 11.635 22.8661C9.52567 22.8661 7.57031 22.2533 5.92299 21.1987C6.22433 21.2321 6.51228 21.2455 6.82031 21.2455C8.56138 21.2455 10.1618 20.6562 11.4375 19.6585C9.80357 19.625 8.4308 18.5536 7.96205 17.0804C8.5346 17.1641 9.05022 17.1641 9.63951 17.0134C8.79819 16.8425 8.04199 16.3855 7.49938 15.7203C6.95678 15.055 6.66123 14.2223 6.66295 13.3638V13.317C7.15513 13.5949 7.73438 13.7656 8.3404 13.7891C7.83095 13.4495 7.41314 12.9895 7.12403 12.4499C6.83493 11.9102 6.68345 11.3075 6.68304 10.6953C6.68304 10.0022 6.86384 9.36942 7.18862 8.82031C8.12244 9.96988 9.28771 10.9101 10.6087 11.5798C11.9297 12.2495 13.3768 12.6338 14.856 12.7076C14.3304 10.1797 16.2188 8.13393 18.4888 8.13393C19.5603 8.13393 20.5246 8.58259 21.2042 9.3058C22.0446 9.14844 22.8482 8.8337 23.5647 8.41183C23.2868 9.27232 22.7042 9.99888 21.9308 10.4576C22.6808 10.3772 23.404 10.1696 24.0737 9.87835C23.5681 10.6217 22.9353 11.2812 22.2087 11.8069Z" fill="white"/>
</svg>
